                                     



                             =!HD DESI ROCKER RELEASES!=












 

Release Title: Prince of Persia The Sands of Time 720P BRRip[Dual-Audio][Eng-Hindi]~BONIIN
Release Date: 28 May 2010 (India)  
Release Length: 1h 51mn


Tagline: Defy the Future 
  
Storyline:Adopted from the streets of Nasaf by King Sharaman of Persia, young Dastan grows up 
amongst royalty and quickly earns his place as a mighty warrior and prince. As his brothers Garsiv 
and Tus plan battle strategies, a spy sends word that the Holy City of Alamut has been supplying weapons 
to enemies of Persia. Taking matters into his own hands, Tus orders an attack on the sacred city and upon 
its fall Dastan encounters the beautiful Princess Tamina. When King Sharaman dies under mysterious circumstances 
shortly after, and Dastan is accused of his murder, he flees with the princess on a harrowing mission to clear his 
name. Learning from Tamina the true motives behind Alamut's invasion, Dastan must embark on a perilous quest to stop 
an evil mastermind's plot for ultimate power with a mystical weapon that can control the very fabric of time. 
 






Cast:

 
 
 Jake Gyllenhaal ...  Dastan 

 Gemma Arterton ...  Tamina 

 Ben Kingsley ...  Nizam 

 Alfred Molina ...  Sheik Amar 

 Steve Toussaint ...  Seso 

 Toby Kebbell ...  Garsiv 

 Richard Coyle ...  Tus 

 Ronald Pickup ...  King Sharaman 

 Reece Ritchie ...  Bis 

 Gísli Örn Garðarsson ...  Hassansin Leader 

 Claudio Pacifico ...  Hassansin Porcupine
 
 Thomas DuPont ...  Hassansin Whip Man 

 Dave Pope ...  Hassansin Giant Scimitar
 
 Domonkos Pardanyi ...  Hassansin Double-Bladed Halberd 

 Massimilano Ubaldi ...  Hassansin Long Razor 





 





General INFO:

Title............................: Prince of Persia The Sands of Time 720P BRRip[Dual-Audio][Eng-Hindi]~BONIIN
Genre............................: Action | Adventure | Fantasy | Romance
Directer.........................: Mike Newell
Writer...........................: Boaz Yakin / Doug Miro & Carlo Bernard
IMDB.............................: http://www.imdb.com/title/tt0947810/
year.............................: 28 May 2010 (India)  
User Rating......................: 6.9/10   35,352 votes »  
VIDEO Source.....................: Prince of Persia The Sands of Time 1080p Bluray x264-CBGB                                                   
File size........................: 2.27 GiB
Run time.........................: 1h 51mn
Languages........................: English.Hindi
Subtittle........................: English
Ripper...........................: BONIIN[BOW]








Video
ID                               : 1
Format                           : AVC-Matroska
Format/Info                      : Advanced Video Codec
Format profile                   : High@L4.1
Format settings, CABAC           : Yes
Format settings, ReFrames        : 4 frames
Muxing mode                      : Container profile=Unknown@4.1
Codec ID                         : V_MPEG4/ISO/AVC
Duration                         : 1h 51mn
Bit rate                         : 2 158 Kbps
Nominal bit rate                 : 2 124 Kbps
Overall bit rate                 : 2 920 Kbps
Width                            : 1 280 pixels
Height                           : 528 pixels
Display aspect ratio             : 2.40:1
Frame rate                       : 25.000 fps
Original frame rate              : 23.976 fps
Resolution                       : 8 bits
Colorimetry                      : 4:2:0
Scan type                        : Progressive
Bits/(Pixel*Frame)               : 0.128
Stream size                      : 1.68 GiB (74%)
Title                            : RIPPER~BONIIN
Writing library                  : x264 core 104 r1677 19df41a
Encoding settings                : cabac=1 / ref=4 / deblock=1:0:0
Language                         : English
Encoded date                     : UTC 2010-09-05 10:40:46
Writing application              : mkvmerge v3.3.0 ('Language') built on Mar 24 2010 14:59:24
Writing library                  : libebml v0.8.0 + libmatroska v0.9.0








Audio #1
ID                               : 2
Format                           : AC-3
Format/Info                      : Audio Coding 3
Codec ID                         : A_AC3
Duration                         : 1h 51mn
Bit rate mode                    : Constant
Bit rate                         : 448 Kbps
Channel(s)                       : 6 channels
Channel positions                : Front: L C R, Side: L R, LFE
Sampling rate                    : 48.0 KHz
Video delay                      : 1s 0ms
Stream size                      : 356 MiB (15%)
Title                            : RIPPER~BONIIN
Language                         : English






Audio #2
ID                               : 3
Format                           : AC-3
Format/Info                      : Audio Coding 3
Codec ID                         : A_AC3
Duration                         : 1h 51mn
Bit rate mode                    : Constant
Bit rate                         : 256 Kbps
Channel(s)                       : 2 channels
Channel positions                : Front: L R
Sampling rate                    : 48.0 KHz
Video delay                      : 275ms
Stream size                      : 204 MiB (9%)
Title                            : RIPPER~BONIIN
Language                         : Hindi








SCREENSHOTS
 
http://img205.imageshack.us/img205/3233/vlcsnap2010082722h41m09.png 
http://img72.imageshack.us/img72/8167/604841136822572329131.jpg 
http://img251.imageshack.us/img251/6651/432912040685408293911.png 
http://img716.imageshack.us/img716/3889/vlcsnap2010082722h39m31.png 
http://img695.imageshack.us/img695/8621/793652997742087814271.png 
http://img163.imageshack.us/img163/5872/vlcsnap2010082722h39m16.png 
http://img819.imageshack.us/img819/6568/769134336380372970851.jpg 
http://img530.imageshack.us/img530/9672/vlcsnap2010082722h39m47.png 
http://img707.imageshack.us/img707/6245/880833029526068434321.jpg 
http://img441.imageshack.us/img441/9672/vlcsnap2010082722h39m47.png 
http://img202.imageshack.us/img202/8281/vlcsnap2010082722h40m17.png 
http://img64.imageshack.us/img64/1811/vlcsnap2010082722h40m03.png 
http://img62.imageshack.us/img62/28/vlcsnap2010082722h40m35.png












